<svg width="690" height="228" viewBox="0 0 690 228" fill="none" xmlns="http://www.w3.org/2000/svg">
<path opacity="0.55" d="M154.45 493.331C154.45 493.331 226.554 682.555 446.193 623.703C665.833 564.851 633.664 364.926 633.664 364.926M86.3179 478.66L206.121 446.558M565.531 350.255L685.334 318.154M176.642 291.276C188.766 336.522 162.836 382.783 118.725 394.603C74.6147 406.422 29.0278 379.324 16.9041 334.077C4.7803 288.831 30.7106 242.57 74.821 230.75C118.931 218.931 164.518 246.029 176.642 291.276ZM693.465 108.889C711.651 176.759 672.755 246.151 606.59 263.88C540.424 281.609 472.044 240.961 453.858 173.092C435.673 105.222 474.568 35.8303 540.734 18.1013C606.899 0.372278 675.28 41.0194 693.465 108.889Z" stroke="#F1F4F7" stroke-width="26" stroke-linecap="round"/>
</svg>
