<svg width="300" height="46" viewBox="0 0 300 46" fill="none" xmlns="http://www.w3.org/2000/svg">
<path d="M254.158 33.8307C252.212 33.8307 250.463 33.4243 248.912 32.6116C247.389 31.7708 246.176 30.5518 245.273 28.9543C244.399 27.3569 243.961 25.3952 243.961 23.0691V12.728C243.961 12.1114 244.159 11.607 244.554 11.2146C244.977 10.7943 245.499 10.5841 246.119 10.5841C246.74 10.5841 247.248 10.7943 247.642 11.2146C248.066 11.607 248.277 12.1114 248.277 12.728V23.0691C248.277 25.4512 248.912 27.2028 250.181 28.3238C251.479 29.4167 253.086 29.9632 255.004 29.9632C256.217 29.9632 257.289 29.725 258.22 29.2486C259.179 28.7722 259.941 28.1276 260.505 27.3149C261.069 26.5022 261.351 25.5914 261.351 24.5825V12.728C261.351 12.0834 261.548 11.5649 261.943 11.1726C262.366 10.7802 262.888 10.5841 263.509 10.5841C264.158 10.5841 264.679 10.7802 265.074 11.1726C265.469 11.5649 265.667 12.0834 265.667 12.728V31.4766C265.667 32.0931 265.469 32.6116 265.074 33.032C264.679 33.4243 264.158 33.6205 263.509 33.6205C262.888 33.6205 262.366 33.4243 261.943 33.032C261.548 32.6116 261.351 32.0931 261.351 31.4766V31.0142C260.477 31.8829 259.419 32.5695 258.178 33.074C256.937 33.5784 255.597 33.8307 254.158 33.8307Z" fill="#095184"/>
<path d="M280.775 33.8307C278.828 33.8307 277.08 33.4243 275.528 32.6116C274.005 31.7708 272.792 30.5518 271.89 28.9543C271.015 27.3569 270.578 25.3952 270.578 23.0691V12.728C270.578 12.1114 270.775 11.607 271.17 11.2146C271.593 10.7943 272.115 10.5841 272.736 10.5841C273.356 10.5841 273.864 10.7943 274.259 11.2146C274.682 11.607 274.894 12.1114 274.894 12.728V23.0691C274.894 25.4512 275.528 27.2028 276.798 28.3238C278.095 29.4167 279.703 29.9632 281.621 29.9632C282.834 29.9632 283.906 29.725 284.836 29.2486C285.796 28.7722 286.557 28.1276 287.121 27.3149C287.685 26.5022 287.967 25.5914 287.967 24.5825V12.728C287.967 12.0834 288.165 11.5649 288.56 11.1726C288.983 10.7802 289.505 10.5841 290.125 10.5841C290.774 10.5841 291.296 10.7802 291.691 11.1726C292.086 11.5649 292.283 12.0834 292.283 12.728V31.4766C292.283 32.0931 292.086 32.6116 291.691 33.032C291.296 33.4243 290.774 33.6205 290.125 33.6205C289.505 33.6205 288.983 33.4243 288.56 33.032C288.165 32.6116 287.967 32.0931 287.967 31.4766V31.0142C287.093 31.8829 286.035 32.5695 284.794 33.074C283.553 33.5784 282.213 33.8307 280.775 33.8307Z" fill="#095184"/>
<path d="M219.587 33.9855C218.967 33.9855 218.459 33.7893 218.064 33.397C217.698 32.9766 217.514 32.4582 217.514 31.8416V13.135C217.514 12.4905 217.698 11.972 218.064 11.5797C218.459 11.1873 218.967 10.9911 219.587 10.9911C220.236 10.9911 220.758 11.1873 221.153 11.5797C221.548 11.972 221.745 12.4905 221.745 13.135V20.1553H234.819V13.135C234.819 12.4905 235.017 11.972 235.411 11.5797C235.835 11.1873 236.356 10.9911 236.977 10.9911C237.626 10.9911 238.133 11.1873 238.5 11.5797C238.867 11.972 239.05 12.4905 239.05 13.135V31.8416C239.05 32.4582 238.867 32.9766 238.5 33.397C238.133 33.7893 237.626 33.9855 236.977 33.9855C236.356 33.9855 235.835 33.7893 235.411 33.397C235.017 32.9766 234.819 32.4582 234.819 31.8416V23.9386H221.745V31.8416C221.745 32.4582 221.548 32.9766 221.153 33.397C220.758 33.7893 220.236 33.9855 219.587 33.9855Z" fill="#095184"/>
<path d="M200.967 33.9147C198.683 33.9147 196.666 33.4243 194.917 32.4434C193.168 31.4345 191.786 30.0613 190.771 28.3238C189.783 26.5582 189.29 24.5404 189.29 22.2704C189.29 19.9724 189.783 17.9546 190.771 16.2171C191.786 14.4515 193.168 13.0783 194.917 12.0974C196.666 11.0885 198.683 10.5841 200.967 10.5841C203.224 10.5841 205.227 11.0885 206.976 12.0974C208.724 13.0783 210.092 14.4515 211.08 16.2171C212.095 17.9546 212.603 19.9724 212.603 22.2704C212.603 24.5404 212.109 26.5582 211.122 28.3238C210.135 30.0613 208.767 31.4345 207.018 32.4434C205.269 33.4243 203.252 33.9147 200.967 33.9147ZM200.967 30.1314C202.434 30.1314 203.732 29.7951 204.86 29.1225C205.988 28.4499 206.863 27.5251 207.483 26.348C208.132 25.171 208.456 23.8118 208.456 22.2704C208.456 20.7291 208.132 19.3699 207.483 18.1928C206.863 16.9877 205.988 16.0489 204.86 15.3763C203.732 14.7037 202.434 14.3674 200.967 14.3674C199.501 14.3674 198.203 14.7037 197.075 15.3763C195.947 16.0489 195.058 16.9877 194.409 18.1928C193.761 19.3699 193.436 20.7291 193.436 22.2704C193.436 23.8118 193.761 25.171 194.409 26.348C195.058 27.5251 195.947 28.4499 197.075 29.1225C198.203 29.7951 199.501 30.1314 200.967 30.1314Z" fill="#095184"/>
<path d="M160.135 33.9855C159.514 33.9855 158.992 33.7893 158.569 33.397C158.174 32.9766 157.977 32.4582 157.977 31.8416V13.135C157.977 12.4905 158.174 11.972 158.569 11.5797C158.992 11.1873 159.514 10.9911 160.135 10.9911C161.037 10.9911 161.799 11.4255 162.419 12.2943L171.178 24.8634L179.936 12.2943C180.556 11.4255 181.318 10.9911 182.221 10.9911C182.869 10.9911 183.391 11.1873 183.786 11.5797C184.181 11.972 184.378 12.4905 184.378 13.135V31.8416C184.378 32.4582 184.181 32.9766 183.786 33.397C183.391 33.7893 182.869 33.9855 182.221 33.9855C181.6 33.9855 181.078 33.7893 180.655 33.397C180.26 32.9766 180.063 32.4582 180.063 31.8416V18.4317L173.378 27.806C172.673 28.7869 171.911 29.2773 171.093 29.2773C170.275 29.2493 169.528 28.7589 168.851 27.806L162.292 18.4317V31.8416C162.292 32.4582 162.095 32.9766 161.7 33.397C161.305 33.7893 160.783 33.9855 160.135 33.9855Z" fill="#095184"/>
<path d="M131.91 43.5833C131.29 43.5833 130.768 43.3731 130.345 42.9527C129.95 42.5604 129.752 42.056 129.752 41.4394V22.2704C129.781 20.0565 130.302 18.0667 131.318 16.3011C132.333 14.5356 133.716 13.1483 135.464 12.1394C137.213 11.1025 139.188 10.5841 141.388 10.5841C143.616 10.5841 145.605 11.1025 147.354 12.1394C149.102 13.1483 150.485 14.5356 151.5 16.3011C152.544 18.0667 153.065 20.0565 153.065 22.2704C153.065 24.4844 152.586 26.4741 151.627 28.2397C150.696 29.9772 149.413 31.3645 147.777 32.4014C146.141 33.4103 144.293 33.9147 142.234 33.9147C140.57 33.9147 139.033 33.5784 137.622 32.9058C136.24 32.2052 135.055 31.2664 134.068 30.0893V41.4394C134.068 42.056 133.871 42.5604 133.476 42.9527C133.081 43.3731 132.559 43.5833 131.91 43.5833ZM141.388 30.1314C142.826 30.1314 144.11 29.7951 145.238 29.1225C146.366 28.4219 147.255 27.483 147.904 26.306C148.581 25.1009 148.919 23.7557 148.919 22.2704C148.919 20.7571 148.581 19.4119 147.904 18.2348C147.255 17.0298 146.366 16.0909 145.238 15.4183C144.11 14.7177 142.826 14.3674 141.388 14.3674C139.977 14.3674 138.694 14.7177 137.538 15.4183C136.409 16.0909 135.521 17.0298 134.872 18.2348C134.223 19.4119 133.899 20.7571 133.899 22.2704C133.899 23.7557 134.223 25.1009 134.872 26.306C135.521 27.483 136.409 28.4219 137.538 29.1225C138.694 29.7951 139.977 30.1314 141.388 30.1314Z" fill="#095184"/>
<path d="M112.36 33.9147C110.3 33.9147 108.453 33.4103 106.817 32.4014C105.181 31.3645 103.883 29.9773 102.924 28.2397C101.993 26.4741 101.528 24.4844 101.528 22.2704C101.528 20.0565 102.036 18.0667 103.051 16.3011C104.095 14.5356 105.491 13.1483 107.24 12.1394C109.017 11.1025 111.006 10.5841 113.206 10.5841C115.406 10.5841 117.38 11.1025 119.129 12.1394C120.878 13.1483 122.26 14.5356 123.276 16.3011C124.319 18.0667 124.841 20.0565 124.841 22.2704V31.6447C124.841 32.2613 124.63 32.7797 124.206 33.2001C123.812 33.5925 123.304 33.7886 122.683 33.7886C122.063 33.7886 121.541 33.5925 121.118 33.2001C120.723 32.7797 120.525 32.2613 120.525 31.6447V30.0893C119.538 31.2664 118.339 32.2052 116.929 32.9058C115.547 33.5784 114.024 33.9147 112.36 33.9147ZM113.206 30.1314C114.644 30.1314 115.928 29.7951 117.056 29.1225C118.184 28.4219 119.073 27.483 119.722 26.306C120.37 25.1009 120.695 23.7557 120.695 22.2704C120.695 20.7571 120.37 19.4119 119.722 18.2348C119.073 17.0298 118.184 16.0909 117.056 15.4183C115.928 14.7177 114.644 14.3674 113.206 14.3674C111.795 14.3674 110.512 14.7177 109.355 15.4183C108.227 16.0909 107.325 17.0298 106.648 18.2348C105.999 19.4119 105.674 20.7571 105.674 22.2704C105.674 23.7557 105.999 25.1009 106.648 26.306C107.325 27.483 108.227 28.4219 109.355 29.1225C110.512 29.7951 111.795 30.1314 113.206 30.1314Z" fill="#095184"/>
<path d="M88.4381 33.9147C86.661 33.9147 85.0674 33.6485 83.657 33.116C82.2749 32.5555 81.1748 31.7848 80.3568 30.804C79.567 29.8231 79.1721 28.7021 79.1721 27.441C79.1721 25.5633 79.976 24.064 81.5838 22.943C83.1916 21.822 85.434 20.9953 88.3112 20.4628C90.2292 20.0705 91.5267 19.608 92.2037 19.0756C92.8807 18.5151 93.2192 17.8004 93.2192 16.9317C93.2192 16.0349 92.7678 15.3763 91.8652 14.9559C90.9626 14.5075 89.9189 14.2833 88.7343 14.2833C87.747 14.2833 86.7598 14.4375 85.7725 14.7457C84.8135 15.054 84.0096 15.5024 83.3608 16.0909C82.9377 16.4833 82.4723 16.7495 81.9646 16.8896C81.4569 17.0298 81.0479 17.0017 80.7376 16.8056C80.2017 16.4693 79.8632 16.0349 79.7222 15.5024C79.6093 14.9699 79.7363 14.4795 80.1029 14.0311C80.9492 12.9942 82.1338 12.1675 83.657 11.5509C85.2084 10.9063 86.9149 10.584 88.7766 10.584C90.3562 10.584 91.7947 10.8363 93.0922 11.3407C94.3897 11.8171 95.4193 12.5318 96.1809 13.4846C96.9707 14.4375 97.3656 15.6145 97.3656 17.0157C97.3656 20.2666 94.6859 22.4806 89.3266 23.6576C87.0983 24.106 85.561 24.6385 84.7148 25.255C83.8686 25.8436 83.4596 26.5582 83.4878 27.399C83.5442 29.2206 85.1943 30.1314 88.4381 30.1314C89.9048 30.1314 91.1459 29.9912 92.1614 29.711C93.205 29.4027 94.023 28.9403 94.6154 28.3238C95.0103 27.9034 95.4616 27.6231 95.9693 27.483C96.477 27.3429 96.9989 27.497 97.5348 27.9454C98.0143 28.3378 98.2541 28.7862 98.2541 29.2906C98.2541 29.7951 98.0425 30.2715 97.6194 30.7199C96.6886 31.6447 95.3911 32.4154 93.7269 33.0319C92.0627 33.6205 90.2997 33.9147 88.4381 33.9147Z" fill="#095184"/>
<path d="M50.6581 33.6713C50.0375 33.6713 49.5157 33.4751 49.0926 33.0828C48.6977 32.6624 48.5002 32.144 48.5002 31.5274V12.7788C48.5567 12.1623 48.7823 11.6578 49.1772 11.2655C49.5721 10.8731 50.0657 10.6769 50.6581 10.6769H50.7004H61.278C62.6037 10.6769 63.7743 10.9432 64.7897 11.4757C65.8334 11.9801 66.6514 12.6947 67.2437 13.6195C67.8361 14.5163 68.1322 15.5533 68.1322 16.7303C68.1322 17.8233 67.8361 18.8041 67.2437 19.6729C66.6796 20.5137 65.918 21.1582 64.959 21.6066C66.2001 22.1391 67.1732 22.8818 67.8784 23.8346C68.6118 24.7874 68.9785 25.8944 68.9785 27.1555C68.9785 28.4167 68.64 29.5377 67.963 30.5185C67.286 31.4994 66.3411 32.2701 65.1282 32.8306C63.9435 33.3911 62.5755 33.6713 61.0241 33.6713H50.6581ZM61.278 14.6284H52.8159V20.0513H61.7011C62.4062 20.0513 62.9845 19.785 63.4358 19.2525C63.8871 18.692 64.1128 17.9914 64.1128 17.1507C64.1128 16.422 63.8448 15.8195 63.3089 15.3431C62.7729 14.8667 62.096 14.6284 61.278 14.6284ZM52.8159 29.6778H61.0241C62.1524 29.6778 63.0691 29.4115 63.7743 28.8791C64.4795 28.3186 64.832 27.6039 64.832 26.7352C64.832 25.8104 64.4795 25.0537 63.7743 24.4652C63.0691 23.8766 62.1524 23.5824 61.0241 23.5824H52.8159V29.6778Z" fill="#095184"/>
<ellipse cx="8.20479" cy="16.0205" rx="3.7795" ry="3.7551" fill="#095184"/>
<ellipse cx="31.2911" cy="14.143" rx="5.66924" ry="5.63265" fill="#68AE84"/>
<path d="M8.61401 24.4071C8.61401 24.4071 9.55889 33.3254 19.9525 33.3254C30.3461 33.3254 31.291 24.4071 31.291 24.4071" stroke="#095184" stroke-width="5" stroke-linecap="round"/>
<path d="M5.77954 22.9989H11.4488" stroke="#095184" stroke-width="5" stroke-linecap="round"/>
<path d="M28.4565 22.9989H34.1258" stroke="#095184" stroke-width="5" stroke-linecap="round"/>
</svg>
