<svg width="300" height="46" viewBox="0 0 300 46" fill="none" xmlns="http://www.w3.org/2000/svg">
<path d="M254.158 33.8306C252.212 33.8306 250.463 33.4242 248.912 32.6115C247.389 31.7708 246.176 30.5517 245.273 28.9543C244.399 27.3568 243.961 25.3951 243.961 23.069V12.7279C243.961 12.1113 244.159 11.6069 244.554 11.2145C244.977 10.7942 245.499 10.584 246.119 10.584C246.74 10.584 247.248 10.7942 247.642 11.2145C248.066 11.6069 248.277 12.1113 248.277 12.7279V23.069C248.277 25.4512 248.912 27.2027 250.181 28.3237C251.479 29.4167 253.086 29.9632 255.004 29.9632C256.217 29.9632 257.289 29.7249 258.22 29.2485C259.179 28.7721 259.941 28.1275 260.505 27.3148C261.069 26.5021 261.351 25.5913 261.351 24.5824V12.7279C261.351 12.0833 261.548 11.5649 261.943 11.1725C262.366 10.7802 262.888 10.584 263.509 10.584C264.158 10.584 264.679 10.7802 265.074 11.1725C265.469 11.5649 265.667 12.0833 265.667 12.7279V31.4765C265.667 32.093 265.469 32.6115 265.074 33.0319C264.679 33.4242 264.158 33.6204 263.509 33.6204C262.888 33.6204 262.366 33.4242 261.943 33.0319C261.548 32.6115 261.351 32.093 261.351 31.4765V31.0141C260.477 31.8829 259.419 32.5695 258.178 33.0739C256.937 33.5784 255.597 33.8306 254.158 33.8306Z" fill="#095184"/>
<path d="M280.775 33.8306C278.828 33.8306 277.08 33.4242 275.528 32.6115C274.005 31.7708 272.792 30.5517 271.89 28.9543C271.015 27.3568 270.578 25.3951 270.578 23.069V12.7279C270.578 12.1113 270.775 11.6069 271.17 11.2145C271.593 10.7942 272.115 10.584 272.736 10.584C273.356 10.584 273.864 10.7942 274.259 11.2145C274.682 11.6069 274.894 12.1113 274.894 12.7279V23.069C274.894 25.4512 275.528 27.2027 276.798 28.3237C278.095 29.4167 279.703 29.9632 281.621 29.9632C282.834 29.9632 283.906 29.7249 284.836 29.2485C285.796 28.7721 286.557 28.1275 287.121 27.3148C287.685 26.5021 287.967 25.5913 287.967 24.5824V12.7279C287.967 12.0833 288.165 11.5649 288.56 11.1725C288.983 10.7802 289.505 10.584 290.125 10.584C290.774 10.584 291.296 10.7802 291.691 11.1725C292.086 11.5649 292.283 12.0833 292.283 12.7279V31.4765C292.283 32.093 292.086 32.6115 291.691 33.0319C291.296 33.4242 290.774 33.6204 290.125 33.6204C289.505 33.6204 288.983 33.4242 288.56 33.0319C288.165 32.6115 287.967 32.093 287.967 31.4765V31.0141C287.093 31.8829 286.035 32.5695 284.794 33.0739C283.553 33.5784 282.213 33.8306 280.775 33.8306Z" fill="#095184"/>
<path d="M219.587 33.9856C218.967 33.9856 218.459 33.7894 218.064 33.3971C217.698 32.9767 217.514 32.4582 217.514 31.8417V13.1351C217.514 12.4905 217.698 11.9721 218.064 11.5797C218.459 11.1874 218.967 10.9912 219.587 10.9912C220.236 10.9912 220.758 11.1874 221.153 11.5797C221.548 11.9721 221.745 12.4905 221.745 13.1351V20.1553H234.819V13.1351C234.819 12.4905 235.017 11.9721 235.411 11.5797C235.835 11.1874 236.356 10.9912 236.977 10.9912C237.626 10.9912 238.133 11.1874 238.5 11.5797C238.867 11.9721 239.05 12.4905 239.05 13.1351V31.8417C239.05 32.4582 238.867 32.9767 238.5 33.3971C238.133 33.7894 237.626 33.9856 236.977 33.9856C236.356 33.9856 235.835 33.7894 235.411 33.3971C235.017 32.9767 234.819 32.4582 234.819 31.8417V23.9387H221.745V31.8417C221.745 32.4582 221.548 32.9767 221.153 33.3971C220.758 33.7894 220.236 33.9856 219.587 33.9856Z" fill="#095184"/>
<path d="M200.967 33.9147C198.683 33.9147 196.666 33.4242 194.917 32.4434C193.168 31.4345 191.786 30.0612 190.771 28.3237C189.783 26.5581 189.29 24.5404 189.29 22.2703C189.29 19.9723 189.783 17.9545 190.771 16.217C191.786 14.4514 193.168 13.0782 194.917 12.0973C196.666 11.0884 198.683 10.584 200.967 10.584C203.224 10.584 205.227 11.0884 206.976 12.0973C208.724 13.0782 210.092 14.4514 211.08 16.217C212.095 17.9545 212.603 19.9723 212.603 22.2703C212.603 24.5404 212.109 26.5581 211.122 28.3237C210.135 30.0612 208.767 31.4345 207.018 32.4434C205.269 33.4242 203.252 33.9147 200.967 33.9147ZM200.967 30.1313C202.434 30.1313 203.732 29.795 204.86 29.1224C205.988 28.4498 206.863 27.525 207.483 26.348C208.132 25.1709 208.456 23.8117 208.456 22.2703C208.456 20.729 208.132 19.3698 207.483 18.1927C206.863 16.9877 205.988 16.0488 204.86 15.3762C203.732 14.7036 202.434 14.3673 200.967 14.3673C199.501 14.3673 198.203 14.7036 197.075 15.3762C195.947 16.0488 195.058 16.9877 194.409 18.1927C193.761 19.3698 193.436 20.729 193.436 22.2703C193.436 23.8117 193.761 25.1709 194.409 26.348C195.058 27.525 195.947 28.4498 197.075 29.1224C198.203 29.795 199.501 30.1313 200.967 30.1313Z" fill="#095184"/>
<path d="M160.135 33.9856C159.514 33.9856 158.992 33.7894 158.569 33.3971C158.174 32.9767 157.977 32.4582 157.977 31.8417V13.1351C157.977 12.4905 158.174 11.9721 158.569 11.5797C158.992 11.1874 159.514 10.9912 160.135 10.9912C161.037 10.9912 161.799 11.4256 162.419 12.2944L171.178 24.8635L179.936 12.2944C180.556 11.4256 181.318 10.9912 182.221 10.9912C182.869 10.9912 183.391 11.1874 183.786 11.5797C184.181 11.9721 184.378 12.4905 184.378 13.1351V31.8417C184.378 32.4582 184.181 32.9767 183.786 33.3971C183.391 33.7894 182.869 33.9856 182.221 33.9856C181.6 33.9856 181.078 33.7894 180.655 33.3971C180.26 32.9767 180.063 32.4582 180.063 31.8417V18.4318L173.378 27.8061C172.673 28.787 171.911 29.2774 171.093 29.2774C170.275 29.2494 169.528 28.759 168.851 27.8061L162.292 18.4318V31.8417C162.292 32.4582 162.095 32.9767 161.7 33.3971C161.305 33.7894 160.783 33.9856 160.135 33.9856Z" fill="#095184"/>
<path d="M131.91 43.5832C131.29 43.5832 130.768 43.373 130.345 42.9527C129.95 42.5603 129.752 42.0559 129.752 41.4393V22.2703C129.781 20.0564 130.302 18.0666 131.318 16.301C132.333 14.5355 133.716 13.1483 135.464 12.1394C137.213 11.1024 139.188 10.584 141.388 10.584C143.616 10.584 145.605 11.1024 147.354 12.1394C149.102 13.1483 150.485 14.5355 151.5 16.301C152.544 18.0666 153.065 20.0564 153.065 22.2703C153.065 24.4843 152.586 26.4741 151.627 28.2396C150.696 29.9772 149.413 31.3644 147.777 32.4013C146.141 33.4102 144.293 33.9147 142.234 33.9147C140.57 33.9147 139.033 33.5784 137.622 32.9058C136.24 32.2051 135.055 31.2663 134.068 30.0893V41.4393C134.068 42.0559 133.871 42.5603 133.476 42.9527C133.081 43.373 132.559 43.5832 131.91 43.5832ZM141.388 30.1313C142.826 30.1313 144.11 29.795 145.238 29.1224C146.366 28.4218 147.255 27.483 147.904 26.3059C148.581 25.1008 148.919 23.7557 148.919 22.2703C148.919 20.757 148.581 19.4118 147.904 18.2348C147.255 17.0297 146.366 16.0909 145.238 15.4183C144.11 14.7176 142.826 14.3673 141.388 14.3673C139.977 14.3673 138.694 14.7176 137.538 15.4183C136.409 16.0909 135.521 17.0297 134.872 18.2348C134.223 19.4118 133.899 20.757 133.899 22.2703C133.899 23.7557 134.223 25.1008 134.872 26.3059C135.521 27.483 136.409 28.4218 137.538 29.1224C138.694 29.795 139.977 30.1313 141.388 30.1313Z" fill="#095184"/>
<path d="M112.36 33.9147C110.3 33.9147 108.453 33.4102 106.817 32.4013C105.181 31.3644 103.883 29.9772 102.924 28.2396C101.993 26.4741 101.528 24.4843 101.528 22.2703C101.528 20.0564 102.036 18.0666 103.051 16.3011C104.095 14.5355 105.491 13.1483 107.24 12.1394C109.017 11.1024 111.006 10.584 113.206 10.584C115.406 10.584 117.38 11.1024 119.129 12.1394C120.878 13.1483 122.26 14.5355 123.276 16.3011C124.319 18.0666 124.841 20.0564 124.841 22.2703V31.6446C124.841 32.2612 124.63 32.7797 124.206 33.2C123.812 33.5924 123.304 33.7885 122.683 33.7885C122.063 33.7885 121.541 33.5924 121.118 33.2C120.723 32.7797 120.525 32.2612 120.525 31.6446V30.0893C119.538 31.2663 118.339 32.2051 116.929 32.9058C115.547 33.5784 114.024 33.9147 112.36 33.9147ZM113.206 30.1313C114.644 30.1313 115.928 29.795 117.056 29.1224C118.184 28.4218 119.073 27.483 119.722 26.3059C120.37 25.1008 120.695 23.7557 120.695 22.2703C120.695 20.757 120.37 19.4118 119.722 18.2348C119.073 17.0297 118.184 16.0909 117.056 15.4183C115.928 14.7176 114.644 14.3673 113.206 14.3673C111.795 14.3673 110.512 14.7176 109.355 15.4183C108.227 16.0909 107.325 17.0297 106.648 18.2348C105.999 19.4118 105.674 20.757 105.674 22.2703C105.674 23.7557 105.999 25.1008 106.648 26.3059C107.325 27.483 108.227 28.4218 109.355 29.1224C110.512 29.795 111.795 30.1313 113.206 30.1313Z" fill="#095184"/>
<path d="M88.4381 33.9147C86.661 33.9147 85.0674 33.6484 83.657 33.116C82.2749 32.5555 81.1748 31.7848 80.3568 30.8039C79.567 29.823 79.1721 28.702 79.1721 27.4409C79.1721 25.5633 79.976 24.0639 81.5838 22.9429C83.1916 21.8219 85.434 20.9952 88.3112 20.4627C90.2292 20.0704 91.5267 19.608 92.2037 19.0755C92.8807 18.515 93.2192 17.8004 93.2192 16.9316C93.2192 16.0348 92.7678 15.3762 91.8652 14.9559C90.9626 14.5075 89.9189 14.2833 88.7343 14.2833C87.747 14.2833 86.7598 14.4374 85.7725 14.7457C84.8135 15.0539 84.0096 15.5023 83.3608 16.0909C82.9377 16.4832 82.4723 16.7494 81.9646 16.8896C81.4569 17.0297 81.0479 17.0017 80.7376 16.8055C80.2017 16.4692 79.8632 16.0348 79.7222 15.5023C79.6093 14.9699 79.7363 14.4794 80.1029 14.031C80.9492 12.9941 82.1338 12.1674 83.657 11.5508C85.2084 10.9063 86.9149 10.584 88.7766 10.584C90.3562 10.584 91.7947 10.8362 93.0922 11.3407C94.3897 11.8171 95.4193 12.5317 96.1809 13.4846C96.9707 14.4374 97.3656 15.6144 97.3656 17.0157C97.3656 20.2666 94.6859 22.4805 89.3266 23.6576C87.0983 24.106 85.561 24.6384 84.7148 25.255C83.8686 25.8435 83.4596 26.5581 83.4878 27.3989C83.5442 29.2205 85.1943 30.1313 88.4381 30.1313C89.9048 30.1313 91.1459 29.9912 92.1614 29.7109C93.205 29.4027 94.023 28.9403 94.6154 28.3237C95.0103 27.9033 95.4616 27.6231 95.9693 27.483C96.477 27.3428 96.9989 27.497 97.5348 27.9454C98.0143 28.3377 98.2541 28.7861 98.2541 29.2906C98.2541 29.795 98.0425 30.2714 97.6194 30.7198C96.6886 31.6446 95.3911 32.4153 93.7269 33.0319C92.0627 33.6204 90.2997 33.9147 88.4381 33.9147Z" fill="#095184"/>
<path d="M50.6581 33.6711C50.0375 33.6711 49.5157 33.475 49.0926 33.0826C48.6977 32.6622 48.5002 32.1438 48.5002 31.5272V12.7786C48.5567 12.1621 48.7823 11.6576 49.1772 11.2653C49.5721 10.8729 50.0657 10.6768 50.6581 10.6768H50.7004H61.278C62.6037 10.6768 63.7743 10.943 64.7897 11.4755C65.8334 11.9799 66.6514 12.6945 67.2437 13.6194C67.8361 14.5162 68.1322 15.5531 68.1322 16.7301C68.1322 17.8231 67.8361 18.804 67.2437 19.6727C66.6796 20.5135 65.918 21.158 64.959 21.6064C66.2001 22.1389 67.1732 22.8816 67.8784 23.8344C68.6118 24.7873 68.9785 25.8942 68.9785 27.1554C68.9785 28.4165 68.64 29.5375 67.963 30.5183C67.286 31.4992 66.3411 32.2699 65.1282 32.8304C63.9435 33.3909 62.5755 33.6711 61.0241 33.6711H50.6581ZM61.278 14.6283H52.8159V20.0511H61.7011C62.4062 20.0511 62.9845 19.7848 63.4358 19.2524C63.8871 18.6919 64.1128 17.9912 64.1128 17.1505C64.1128 16.4219 63.8448 15.8193 63.3089 15.3429C62.7729 14.8665 62.096 14.6283 61.278 14.6283ZM52.8159 29.6776H61.0241C62.1524 29.6776 63.0691 29.4114 63.7743 28.8789C64.4795 28.3184 64.832 27.6038 64.832 26.735C64.832 25.8102 64.4795 25.0535 63.7743 24.465C63.0691 23.8765 62.1524 23.5822 61.0241 23.5822H52.8159V29.6776Z" fill="#095184"/>
<ellipse cx="8.20479" cy="16.0207" rx="3.7795" ry="3.7551" fill="#095184"/>
<ellipse cx="31.2911" cy="14.1424" rx="5.66924" ry="5.63265" fill="#68AE84"/>
<path d="M8.61401 24.4072C8.61401 24.4072 9.55889 33.3256 19.9525 33.3256C30.3461 33.3256 31.291 24.4072 31.291 24.4072" stroke="#095184" stroke-width="4" stroke-linecap="round"/>
<path d="M5.77954 22.999H11.4488" stroke="#095184" stroke-width="4" stroke-linecap="round"/>
<path d="M28.4565 22.999H34.1258" stroke="#095184" stroke-width="4" stroke-linecap="round"/>
</svg>
