<svg width="1157" height="1146" viewBox="0 0 1157 1146" fill="none" xmlns="http://www.w3.org/2000/svg">
<path opacity="0.1" d="M210.076 722.467C210.076 722.467 248.44 1105.03 670.445 1105.03C1092.45 1105.03 1130.81 722.467 1130.81 722.467M94.9859 662.064H325.17M1015.72 662.064H1245.91M346.913 362.716C346.913 451.678 278.208 523.795 193.456 523.795C108.705 523.795 40 451.678 40 362.716C40 273.755 108.705 201.637 193.456 201.637C278.208 201.637 346.913 273.755 346.913 362.716ZM1361 282.177C1361 415.619 1257.94 523.795 1130.82 523.795C1003.69 523.795 900.631 415.619 900.631 282.177C900.631 148.735 1003.69 40.5586 1130.82 40.5586C1257.94 40.5586 1361 148.735 1361 282.177Z" stroke="white" stroke-width="80" stroke-linecap="round"/>
</svg>
